# xmcd
#
# Track frame offsets: 
#        150
#        14762
#        41669
#        56610
#        69112
#        80173
#        101556
#        113834
#        132094
#        147891
#        167107
#        186248
#        208037
#        223004
#        243663
#        270425
#        284498
#        294877
#        307799
#
# Disc length: 4286 seconds
#
# Revision: 0
# Processed by: cddbd v1.5.2PL0 Copyright (c) Steve Scherf et al.
# Submitted via: ExactAudioCopy v0.99pb3
#
DISCID=1d10bc13
DTITLE=James Last - James Last, Ein Leben für Musik, Jubiläums-Edition
DTITLE=CD 4
DYEAR=1900
DGENRE=Big Band
TTITLE0=Rondo Alla Turca (Türkischer Marsch)
TTITLE1=Capriccio Italien Opus 45
TTITLE2=Tritsch-Tratsch-Polka
TTITLE3=Les Contes D Hoffmann: Bacarole
TTITLE4=Romeo and Julia
TTITLE5=Die Moldau
TTITLE6=Flieg Gedanken (Gefangenen Chor Aus "Nabucco")
TTITLE7=Concierto De Aranjuez:Andante
TTITLE8=L'Arlésienne SuiteNo. 1:Prelude
TTITLE9=Die Hochzeit des Figaro: Overture
TTITLE10=Träumerei
TTITLE11=Xerxes Hwv 40: Largo
TTITLE12=Elvira Madigan
TTITLE13=Orchestral Suite No. 3 In D Bwv 1068: 2.Air
TTITLE14=Pavane Pour Une Infante Defunte
TTITLE15=Madame Butterfly: Un Bel Di Vedremo
TTITLE16=Slavonic Dance No. 10
TTITLE17=Waltz In A Flat Opus 39 No. 15 "Wiegenlied"
TTITLE18=Le Quatro Stagioni: Der Frühling
EXTD=
EXTT0=
EXTT1=
EXTT2=
EXTT3=
EXTT4=
EXTT5=
EXTT6=
EXTT7=
EXTT8=
EXTT9=
EXTT10=
EXTT11=
EXTT12=
EXTT13=
EXTT14=
EXTT15=
EXTT16=
EXTT17=
EXTT18=
PLAYORDER=
